<svg width="1200" height="900" viewBox="0 0 1200 900" fill="none" xmlns="http://www.w3.org/2000/svg" role="img" aria-labelledby="workflowTitle workflowDesc">
  <title id="workflowTitle">catalogIQ workflow illustration</title>
  <desc id="workflowDesc">Abstract Shopify-style workflow illustration showing filters, table editing, and background automation.</desc>
  <defs>
    <filter id="shadowSoft" x="-20%" y="-20%" width="140%" height="140%" color-interpolation-filters="sRGB">
      <feDropShadow dx="0" dy="18" stdDeviation="22" flood-color="#203127" flood-opacity="0.08"/>
      <feDropShadow dx="0" dy="6" stdDeviation="8" flood-color="#203127" flood-opacity="0.08"/>
    </filter>
    <filter id="shadowCard" x="-20%" y="-20%" width="140%" height="140%" color-interpolation-filters="sRGB">
      <feDropShadow dx="0" dy="10" stdDeviation="14" flood-color="#1F2A24" flood-opacity="0.08"/>
    </filter>
  </defs>

  <rect width="1200" height="900" rx="40" fill="#F4F6F4"/>
  <rect x="62" y="78" width="1076" height="744" rx="34" fill="#FFFFFF" stroke="#D8DEDA" stroke-width="2" filter="url(#shadowSoft)"/>

  <rect x="110" y="126" width="274" height="648" rx="28" fill="#F7F9F8" stroke="#D7DDDA" stroke-width="2"/>
  <rect x="418" y="126" width="672" height="648" rx="28" fill="#FBFCFB" stroke="#D7DDDA" stroke-width="2"/>

  <rect x="144" y="162" width="208" height="22" rx="11" fill="#1F2A24" opacity="0.1"/>
  <rect x="144" y="210" width="208" height="84" rx="20" fill="#FFFFFF" stroke="#C9D2CD" stroke-width="2"/>
  <rect x="164" y="232" width="86" height="14" rx="7" fill="#C7CFCC"/>
  <rect x="164" y="256" width="150" height="12" rx="6" fill="#E1E6E3"/>
  <rect x="164" y="320" width="188" height="18" rx="9" fill="#1F2A24" opacity="0.1"/>
  <rect x="144" y="356" width="208" height="148" rx="22" fill="#FFFFFF" stroke="#C9D2CD" stroke-width="2"/>
  <rect x="164" y="382" width="102" height="14" rx="7" fill="#008060" opacity="0.18"/>
  <rect x="164" y="414" width="144" height="18" rx="9" fill="#EBF7F1"/>
  <rect x="172" y="422" width="18" height="2" rx="1" fill="#008060"/>
  <rect x="198" y="420" width="86" height="6" rx="3" fill="#6D7175" opacity="0.85"/>
  <rect x="164" y="444" width="144" height="18" rx="9" fill="#FFFFFF" stroke="#D6DCDA"/>
  <rect x="172" y="452" width="18" height="2" rx="1" fill="#008060" opacity="0.6"/>
  <rect x="198" y="450" width="72" height="6" rx="3" fill="#6D7175" opacity="0.72"/>
  <rect x="164" y="474" width="144" height="18" rx="9" fill="#FFFFFF" stroke="#D6DCDA"/>
  <rect x="172" y="482" width="18" height="2" rx="1" fill="#008060" opacity="0.6"/>
  <rect x="198" y="480" width="92" height="6" rx="3" fill="#6D7175" opacity="0.72"/>
  <rect x="144" y="538" width="208" height="120" rx="22" fill="#EFF4F2"/>
  <rect x="164" y="566" width="110" height="12" rx="6" fill="#C7CFCC"/>
  <rect x="164" y="592" width="168" height="16" rx="8" fill="#008060"/>
  <rect x="164" y="622" width="132" height="12" rx="6" fill="#C7CFCC"/>

  <rect x="458" y="170" width="592" height="70" rx="24" fill="#FFFFFF" stroke="#D5DDDA" stroke-width="2" filter="url(#shadowCard)"/>
  <rect x="490" y="194" width="132" height="20" rx="10" fill="#EAF2EE"/>
  <rect x="636" y="194" width="110" height="20" rx="10" fill="#EAF2EE"/>
  <rect x="760" y="194" width="92" height="20" rx="10" fill="#EAF2EE"/>
  <rect x="936" y="188" width="84" height="32" rx="16" fill="#008060"/>

  <rect x="458" y="276" width="592" height="338" rx="26" fill="#FFFFFF" stroke="#D5DDDA" stroke-width="2" filter="url(#shadowCard)"/>
  <rect x="486" y="304" width="536" height="30" rx="15" fill="#F1F4F3"/>
  <rect x="502" y="316" width="66" height="6" rx="3" fill="#6D7175" opacity="0.65"/>
  <rect x="640" y="316" width="66" height="6" rx="3" fill="#6D7175" opacity="0.65"/>
  <rect x="778" y="316" width="66" height="6" rx="3" fill="#6D7175" opacity="0.65"/>
  <rect x="916" y="316" width="66" height="6" rx="3" fill="#6D7175" opacity="0.65"/>

  <rect x="486" y="354" width="536" height="44" rx="18" fill="#FCFDFC"/>
  <rect x="502" y="373" width="88" height="8" rx="4" fill="#B6C1BC"/>
  <rect x="650" y="366" width="110" height="20" rx="10" fill="#DDF2E8"/>
  <rect x="802" y="366" width="76" height="20" rx="10" fill="#E4ECF8"/>
  <rect x="926" y="366" width="64" height="20" rx="10" fill="#008060" opacity="0.2"/>

  <rect x="486" y="412" width="536" height="44" rx="18" fill="#FCFDFC"/>
  <rect x="502" y="431" width="74" height="8" rx="4" fill="#B6C1BC"/>
  <rect x="650" y="424" width="138" height="20" rx="10" fill="#EAF2EE"/>
  <rect x="802" y="424" width="84" height="20" rx="10" fill="#2C6ECB" opacity="0.18"/>
  <rect x="926" y="424" width="64" height="20" rx="10" fill="#EAF2EE"/>

  <rect x="486" y="470" width="536" height="44" rx="18" fill="#EFF8F3" stroke="#B8D8C8" stroke-width="2"/>
  <rect x="502" y="489" width="96" height="8" rx="4" fill="#008060" opacity="0.55"/>
  <rect x="650" y="482" width="150" height="20" rx="10" fill="#008060" opacity="0.12"/>
  <rect x="802" y="482" width="96" height="20" rx="10" fill="#2C6ECB" opacity="0.14"/>
  <rect x="926" y="482" width="64" height="20" rx="10" fill="#008060"/>

  <rect x="486" y="528" width="536" height="44" rx="18" fill="#FCFDFC"/>
  <rect x="502" y="547" width="88" height="8" rx="4" fill="#B6C1BC"/>
  <rect x="650" y="540" width="132" height="20" rx="10" fill="#EAF2EE"/>
  <rect x="802" y="540" width="88" height="20" rx="10" fill="#E4ECF8"/>
  <rect x="926" y="540" width="64" height="20" rx="10" fill="#EAF2EE"/>

  <rect x="824" y="646" width="226" height="98" rx="24" fill="#FFFFFF" stroke="#D4DCDA" stroke-width="2" filter="url(#shadowCard)"/>
  <rect x="850" y="674" width="92" height="14" rx="7" fill="#BFC8C4"/>
  <rect x="850" y="706" width="174" height="14" rx="7" fill="#EAF2EE"/>
  <rect x="934" y="668" width="82" height="28" rx="14" fill="#008060"/>

  <path d="M352 432H424C451.614 432 474 454.386 474 482V482" stroke="#4F2399" stroke-width="12" stroke-linecap="round"/>
  <path d="M490 468L474 482L458 498" stroke="#4F2399" stroke-width="12" stroke-linecap="round" stroke-linejoin="round"/>

  <path d="M1040 592C1088.4 592 1128 631.6 1128 680V680" stroke="#008060" stroke-width="12" stroke-linecap="round"/>
  <path d="M1110 663L1128 681L1146 663" stroke="#008060" stroke-width="12" stroke-linecap="round" stroke-linejoin="round"/>

  <circle cx="958" cy="384" r="10" fill="#008060"/>
  <circle cx="958" cy="442" r="10" fill="#2C6ECB"/>
  <circle cx="958" cy="500" r="10" fill="#008060"/>
</svg>