<svg width="1200" height="900" viewBox="0 0 1200 900" fill="none" xmlns="http://www.w3.org/2000/svg" role="img" aria-labelledby="undoTitle undoDesc">
  <title id="undoTitle">catalogIQ undo history illustration</title>
  <desc id="undoDesc">A bulk edit recovery interface showing history entries, undo actions, and a 60-day rollback timeline.</desc>
  <defs>
    <filter id="undoShadow" x="-20%" y="-20%" width="140%" height="140%" color-interpolation-filters="sRGB">
      <feDropShadow dx="0" dy="18" stdDeviation="22" flood-color="#271157" flood-opacity="0.10"/>
      <feDropShadow dx="0" dy="6" stdDeviation="8" flood-color="#271157" flood-opacity="0.06"/>
    </filter>
  </defs>

  <rect width="1200" height="900" rx="40" fill="#F5F1FA"/>
  <rect x="80" y="92" width="1040" height="716" rx="36" fill="#FFFFFF" stroke="#E3DAF2" stroke-width="2" filter="url(#undoShadow)"/>

  <rect x="124" y="132" width="952" height="88" rx="28" fill="#FBF9FE" stroke="#E8E0F4" stroke-width="2"/>
  <rect x="158" y="156" width="168" height="40" rx="20" fill="#F3ECFD"/>
  <rect x="184" y="172" width="108" height="8" rx="4" fill="#5E5573" opacity="0.56"/>
  <rect x="748" y="150" width="144" height="52" rx="26" fill="#FFFFFF" stroke="#E2D9F1" stroke-width="2"/>
  <rect x="920" y="150" width="120" height="52" rx="26" fill="#4F2399"/>
  <rect x="952" y="172" width="56" height="8" rx="4" fill="#FCFAFF" opacity="0.92"/>

  <rect x="124" y="254" width="598" height="510" rx="30" fill="#FBFAFD" stroke="#E6DFF2" stroke-width="2"/>
  <rect x="752" y="254" width="324" height="510" rx="30" fill="#FAF7FD" stroke="#E6DFF2" stroke-width="2"/>

  <rect x="152" y="286" width="542" height="42" rx="21" fill="#EFE9F8"/>
  <rect x="178" y="303" width="112" height="8" rx="4" fill="#5E5573" opacity="0.52"/>
  <rect x="560" y="299" width="94" height="16" rx="8" fill="#EAF6EF"/>

  <rect x="152" y="350" width="542" height="110" rx="24" fill="#F1F9F4" stroke="#CDE7D7" stroke-width="2"/>
  <rect x="178" y="382" width="42" height="42" rx="12" fill="#E4F5EA" stroke="#198754" stroke-width="3"/>
  <path d="M188 403L197 412L210 393" stroke="#198754" stroke-width="5" stroke-linecap="round" stroke-linejoin="round"/>
  <rect x="244" y="374" width="210" height="14" rx="7" fill="#198754" opacity="0.52"/>
  <rect x="244" y="402" width="266" height="10" rx="5" fill="#5E5573" opacity="0.28"/>
  <rect x="244" y="426" width="188" height="10" rx="5" fill="#5E5573" opacity="0.2"/>
  <rect x="560" y="378" width="102" height="34" rx="17" fill="#FFFFFF" stroke="#CDE7D7" stroke-width="2"/>
  <path d="M592 389C581 389 572 398 572 409C572 420 581 429 592 429C602 429 611 420 611 409" stroke="#4F2399" stroke-width="5" stroke-linecap="round"/>
  <path d="M582 395L572 409L588 409" stroke="#4F2399" stroke-width="5" stroke-linecap="round" stroke-linejoin="round"/>

  <rect x="152" y="480" width="542" height="110" rx="24" fill="#FFFFFF" stroke="#E5E0EE" stroke-width="2"/>
  <rect x="178" y="512" width="42" height="42" rx="12" fill="#FFF3F5" stroke="#EB5F7D" stroke-width="3"/>
  <path d="M190 533H208" stroke="#EB5F7D" stroke-width="5" stroke-linecap="round"/>
  <path d="M199 524V542" stroke="#EB5F7D" stroke-width="5" stroke-linecap="round"/>
  <rect x="244" y="504" width="234" height="14" rx="7" fill="#5E5573" opacity="0.58"/>
  <rect x="244" y="532" width="284" height="10" rx="5" fill="#5E5573" opacity="0.28"/>
  <rect x="244" y="556" width="166" height="10" rx="5" fill="#5E5573" opacity="0.2"/>
  <rect x="540" y="506" width="122" height="42" rx="21" fill="#FFF3E8"/>
  <rect x="568" y="523" width="66" height="8" rx="4" fill="#F49A61" opacity="0.66"/>

  <rect x="152" y="610" width="542" height="126" rx="24" fill="#FFFFFF" stroke="#E5E0EE" stroke-width="2"/>
  <rect x="178" y="642" width="42" height="42" rx="12" fill="#EAF1FC" stroke="#2C6ECB" stroke-width="3"/>
  <path d="M190 663H208" stroke="#2C6ECB" stroke-width="5" stroke-linecap="round"/>
  <path d="M199 654V672" stroke="#2C6ECB" stroke-width="5" stroke-linecap="round"/>
  <rect x="244" y="634" width="252" height="14" rx="7" fill="#5E5573" opacity="0.58"/>
  <rect x="244" y="662" width="306" height="10" rx="5" fill="#5E5573" opacity="0.28"/>
  <rect x="244" y="686" width="196" height="10" rx="5" fill="#5E5573" opacity="0.2"/>
  <rect x="534" y="636" width="128" height="44" rx="22" fill="#F3ECFD"/>
  <rect x="564" y="654" width="68" height="8" rx="4" fill="#4F2399" opacity="0.62"/>

  <rect x="780" y="286" width="268" height="154" rx="24" fill="#FFFFFF" stroke="#E1D9F1" stroke-width="2"/>
  <rect x="808" y="316" width="124" height="12" rx="6" fill="#5E5573" opacity="0.56"/>
  <rect x="808" y="346" width="212" height="22" rx="11" fill="#F3ECFD"/>
  <rect x="820" y="355" width="24" height="4" rx="2" fill="#4F2399"/>
  <rect x="856" y="353" width="108" height="8" rx="4" fill="#5E5573" opacity="0.72"/>
  <rect x="808" y="382" width="212" height="22" rx="11" fill="#EAF6EF"/>
  <rect x="820" y="391" width="24" height="4" rx="2" fill="#198754"/>
  <rect x="856" y="389" width="124" height="8" rx="4" fill="#5E5573" opacity="0.72"/>

  <rect x="780" y="464" width="268" height="244" rx="24" fill="#FFFFFF" stroke="#E1D9F1" stroke-width="2"/>
  <rect x="808" y="496" width="112" height="12" rx="6" fill="#5E5573" opacity="0.56"/>
  <path d="M836 558H994" stroke="#D7CBEA" stroke-width="8" stroke-linecap="round"/>
  <path d="M836 606H994" stroke="#D7CBEA" stroke-width="8" stroke-linecap="round"/>
  <path d="M836 654H994" stroke="#D7CBEA" stroke-width="8" stroke-linecap="round"/>
  <circle cx="874" cy="558" r="14" fill="#4F2399"/>
  <circle cx="938" cy="606" r="14" fill="#EB5F7D"/>
  <circle cx="906" cy="654" r="14" fill="#198754"/>
  <rect x="820" y="704" width="188" height="22" rx="11" fill="#F3ECFD"/>
  <rect x="834" y="713" width="102" height="8" rx="4" fill="#4F2399" opacity="0.58"/>

  <path d="M726 542H748" stroke="#4F2399" stroke-width="10" stroke-linecap="round"/>
  <path d="M738 530L726 542L738 554" stroke="#4F2399" stroke-width="10" stroke-linecap="round" stroke-linejoin="round"/>
</svg>