<svg width="1200" height="900" viewBox="0 0 1200 900" fill="none" xmlns="http://www.w3.org/2000/svg" role="img" aria-labelledby="bulkTitle bulkDesc">
  <title id="bulkTitle">catalogIQ bulk selection illustration</title>
  <desc id="bulkDesc">A bulk selection interface with checkboxes, product image icons, selection counts, and actions for grouped Shopify catalog updates.</desc>
  <defs>
    <filter id="bulkFrameShadow" x="-20%" y="-20%" width="140%" height="140%" color-interpolation-filters="sRGB">
      <feDropShadow dx="0" dy="16" stdDeviation="20" flood-color="#271157" flood-opacity="0.10"/>
      <feDropShadow dx="0" dy="4" stdDeviation="8" flood-color="#271157" flood-opacity="0.06"/>
    </filter>
  </defs>

  <rect width="1200" height="900" rx="40" fill="#F4F0FA"/>
  <rect x="74" y="84" width="1052" height="732" rx="36" fill="#FFFFFF" stroke="#E3DAF2" stroke-width="2" filter="url(#bulkFrameShadow)"/>

  <rect x="118" y="124" width="964" height="82" rx="26" fill="#FBF9FE" stroke="#E7DFF4" stroke-width="2"/>
  <rect x="148" y="147" width="162" height="36" rx="18" fill="#F3ECFD"/>
  <rect x="168" y="161" width="82" height="8" rx="4" fill="#5E5573" opacity="0.54"/>
  <rect x="330" y="147" width="132" height="36" rx="18" fill="#FFF3F5"/>
  <rect x="350" y="161" width="68" height="8" rx="4" fill="#EB5F7D" opacity="0.5"/>
  <rect x="734" y="139" width="148" height="52" rx="26" fill="#FFFFFF" stroke="#E0D6F0" stroke-width="2"/>
  <rect x="918" y="139" width="132" height="52" rx="26" fill="url(#bulkButton)"/>
  <defs>
    <linearGradient id="bulkButton" x1="918" y1="139" x2="1050" y2="191" gradientUnits="userSpaceOnUse">
      <stop stop-color="#EB5F7D"/>
      <stop offset="1" stop-color="#F49A61"/>
    </linearGradient>
  </defs>
  <rect x="950" y="161" width="68" height="8" rx="4" fill="#FFF9FB" opacity="0.92"/>

  <rect x="118" y="228" width="964" height="96" rx="28" fill="#F7F3FC" stroke="#E6DCF3" stroke-width="2"/>
  <rect x="146" y="250" width="212" height="52" rx="26" fill="#4F2399"/>
  <rect x="176" y="272" width="96" height="8" rx="4" fill="#FDF9FF" opacity="0.9"/>
  <rect x="380" y="250" width="168" height="52" rx="26" fill="#FFFFFF" stroke="#E0D7F0" stroke-width="2"/>
  <rect x="412" y="272" width="104" height="8" rx="4" fill="#5E5573" opacity="0.52"/>
  <rect x="832" y="250" width="220" height="52" rx="26" fill="#EAF6EF" stroke="#CDE7D7" stroke-width="2"/>
  <rect x="864" y="272" width="100" height="8" rx="4" fill="#198754" opacity="0.64"/>

  <rect x="118" y="352" width="676" height="404" rx="30" fill="#FBFAFD" stroke="#E6DFF2" stroke-width="2"/>
  <rect x="824" y="352" width="258" height="404" rx="30" fill="#FAF7FD" stroke="#E6DFF2" stroke-width="2"/>

  <rect x="146" y="382" width="620" height="40" rx="20" fill="#EFE9F8"/>
  <rect x="174" y="398" width="62" height="8" rx="4" fill="#5E5573" opacity="0.52"/>
  <rect x="292" y="398" width="94" height="8" rx="4" fill="#5E5573" opacity="0.52"/>
  <rect x="442" y="398" width="84" height="8" rx="4" fill="#5E5573" opacity="0.52"/>
  <rect x="644" y="398" width="76" height="8" rx="4" fill="#5E5573" opacity="0.52"/>

  <rect x="146" y="442" width="620" height="86" rx="24" fill="#F1F9F4" stroke="#CDE7D7" stroke-width="2"/>
  <rect x="170" y="470" width="34" height="34" rx="10" fill="#E4F5EA" stroke="#198754" stroke-width="3"/>
  <path d="M179 486L188 495L197 478" stroke="#198754" stroke-width="5" stroke-linecap="round" stroke-linejoin="round"/>
  <rect x="226" y="452" width="88" height="66" rx="18" fill="#E9EFF5" stroke="#DCE7E0" stroke-width="2"/>
  <path d="M260 468H279L288 483V505H252V483L260 468Z" stroke="#2A2F2D" stroke-width="5" stroke-linejoin="round"/>
  <path d="M262 468L270 460L278 468" stroke="#2A2F2D" stroke-width="5" stroke-linecap="round" stroke-linejoin="round"/>
  <rect x="336" y="462" width="270" height="14" rx="7" fill="#5E5573" opacity="0.62"/>
  <rect x="336" y="489" width="226" height="10" rx="5" fill="#5E5573" opacity="0.26"/>
  <rect x="646" y="464" width="84" height="40" rx="20" fill="#EAF1FC"/>
  <rect x="666" y="480" width="44" height="8" rx="4" fill="#2C6ECB" opacity="0.52"/>

  <rect x="146" y="544" width="620" height="86" rx="24" fill="#FFFFFF" stroke="#E5E0EE" stroke-width="2"/>
  <rect x="170" y="572" width="34" height="34" rx="10" fill="#FFFFFF" stroke="#BDAFD6" stroke-width="3"/>
  <rect x="226" y="554" width="88" height="66" rx="18" fill="#EEF3F6" stroke="#DCE7E0" stroke-width="2"/>
  <rect x="255" y="570" width="30" height="34" rx="8" fill="#FFFFFF" stroke="#2A2F2D" stroke-width="5"/>
  <circle cx="270" cy="597" r="3" fill="#2A2F2D"/>
  <rect x="336" y="564" width="292" height="14" rx="7" fill="#5E5573" opacity="0.62"/>
  <rect x="336" y="591" width="248" height="10" rx="5" fill="#5E5573" opacity="0.26"/>
  <rect x="646" y="566" width="84" height="40" rx="20" fill="#FFF3F5"/>
  <rect x="666" y="582" width="44" height="8" rx="4" fill="#EB5F7D" opacity="0.52"/>

  <rect x="146" y="646" width="620" height="86" rx="24" fill="#F1F9F4" stroke="#CDE7D7" stroke-width="2"/>
  <rect x="170" y="674" width="34" height="34" rx="10" fill="#E4F5EA" stroke="#198754" stroke-width="3"/>
  <path d="M179 690L188 699L197 682" stroke="#198754" stroke-width="5" stroke-linecap="round" stroke-linejoin="round"/>
  <rect x="226" y="656" width="88" height="66" rx="18" fill="#FFF2E8" stroke="#DCE7E0" stroke-width="2"/>
  <path d="M246 702H294" stroke="#2A2F2D" stroke-width="5" stroke-linecap="round"/>
  <path d="M252 702C252 676 288 676 288 702" stroke="#2A2F2D" stroke-width="5" stroke-linecap="round"/>
  <path d="M262 680C263 670 277 670 278 680" stroke="#2A2F2D" stroke-width="5" stroke-linecap="round"/>
  <rect x="336" y="666" width="246" height="14" rx="7" fill="#198754" opacity="0.5"/>
  <rect x="336" y="693" width="210" height="10" rx="5" fill="#5E5573" opacity="0.24"/>
  <rect x="646" y="668" width="84" height="40" rx="20" fill="#FFF3E8"/>
  <rect x="666" y="684" width="44" height="8" rx="4" fill="#F49A61" opacity="0.62"/>

  <rect x="850" y="382" width="206" height="108" rx="24" fill="#FFFFFF" stroke="#E0D7F0" stroke-width="2"/>
  <rect x="876" y="408" width="88" height="12" rx="6" fill="#5E5573" opacity="0.58"/>
  <rect x="876" y="438" width="154" height="18" rx="9" fill="#F3ECFD"/>
  <rect x="886" y="446" width="16" height="2" rx="1" fill="#4F2399"/>
  <rect x="912" y="444" width="88" height="6" rx="3" fill="#5E5573" opacity="0.72"/>

  <rect x="850" y="514" width="206" height="158" rx="24" fill="#FFFFFF" stroke="#E0D7F0" stroke-width="2"/>
  <rect x="876" y="542" width="106" height="12" rx="6" fill="#5E5573" opacity="0.58"/>
  <rect x="876" y="574" width="154" height="20" rx="10" fill="#EAF6EF"/>
  <rect x="886" y="583" width="16" height="2" rx="1" fill="#198754"/>
  <rect x="912" y="581" width="104" height="6" rx="3" fill="#5E5573" opacity="0.72"/>
  <rect x="876" y="606" width="154" height="20" rx="10" fill="#FFF3F5"/>
  <rect x="886" y="615" width="16" height="2" rx="1" fill="#EB5F7D"/>
  <rect x="912" y="613" width="92" height="6" rx="3" fill="#5E5573" opacity="0.68"/>
  <rect x="876" y="638" width="154" height="20" rx="10" fill="#FFF3E8"/>
  <rect x="886" y="647" width="16" height="2" rx="1" fill="#F49A61"/>
  <rect x="912" y="645" width="96" height="6" rx="3" fill="#5E5573" opacity="0.68"/>

  <path d="M782 588H812C830 588 844 574 844 556V556" stroke="#4F2399" stroke-width="10" stroke-linecap="round"/>
  <path d="M830 542L844 556L858 542" stroke="#4F2399" stroke-width="10" stroke-linecap="round" stroke-linejoin="round"/>
</svg>